<svg width="25" height="25" viewBox="0 0 25 25" fill="none" xmlns="http://www.w3.org/2000/svg">
<path d="M1.64375 8.021L1.17057 8.50409L0.69873 8.021L1.17057 7.53791L1.64375 8.021ZM8.32708 23.7146C8.14983 23.7146 7.97983 23.6427 7.8545 23.5147C7.72916 23.3868 7.65875 23.2132 7.65875 23.0323C7.65875 22.8513 7.72916 22.6777 7.8545 22.5498C7.97983 22.4218 8.14983 22.3499 8.32708 22.3499V23.7146ZM7.8539 15.3274L1.17057 8.50409L2.11693 7.53791L8.80026 14.3612L7.8539 15.3274ZM1.17057 7.53791L7.8539 0.7146L8.80026 1.68078L2.11693 8.50409L1.17057 7.53791ZM1.64375 7.33867H15.6787V8.70333H1.64375V7.33867ZM15.6787 23.7146H8.32708V22.3499H15.6787V23.7146ZM23.6987 15.5266C23.6987 17.6982 22.8538 19.7809 21.3497 21.3164C19.8457 22.8519 17.8058 23.7146 15.6787 23.7146V22.3499C17.4513 22.3499 19.1512 21.6311 20.4046 20.3514C21.6579 19.0718 22.3621 17.3363 22.3621 15.5266H23.6987ZM15.6787 7.33867C17.8058 7.33867 19.8457 8.20132 21.3497 9.73687C22.8538 11.2724 23.6987 13.355 23.6987 15.5266H22.3621C22.3621 13.717 21.6579 11.9814 20.4046 10.7018C19.1512 9.42221 17.4513 8.70333 15.6787 8.70333V7.33867Z" fill="#FF632A"/>
<path d="M1.17057 8.50409L1.64375 8.021L1.17057 7.53791M1.17057 8.50409L7.8539 15.3274L8.80026 14.3612L2.11693 7.53791L1.17057 8.50409L0.69873 8.021L1.17057 7.53791L7.8539 0.7146L8.80026 1.68078L2.11693 8.50409L1.17057 7.53791M8.32708 23.7146C8.14983 23.7146 7.97983 23.6427 7.8545 23.5147C7.72916 23.3868 7.65875 23.2132 7.65875 23.0323C7.65875 22.8513 7.72916 22.6777 7.8545 22.5498C7.97983 22.4218 8.14983 22.3499 8.32708 22.3499M8.32708 23.7146V22.3499M8.32708 23.7146H15.6787M8.32708 22.3499H15.6787M23.6987 15.5266C23.6987 13.355 22.8538 11.2724 21.3497 9.73687C19.8457 8.20132 17.8058 7.33867 15.6787 7.33867H1.64375V8.70333H15.6787M15.6787 7.33867V8.70333M15.6787 22.3499C17.4513 22.3499 19.1512 21.6311 20.4046 20.3514C21.6579 19.0718 22.3621 17.3363 22.3621 15.5266C22.3621 13.717 21.6579 11.9814 20.4046 10.7018C19.1512 9.42221 17.4513 8.70333 15.6787 8.70333M15.6787 23.7146V22.3499M15.6787 23.7146C17.8058 23.7146 19.8457 22.8519 21.3497 21.3164C22.8538 19.7809 23.6987 17.6982 23.6987 15.5266M23.6987 15.5266H22.3621" stroke="#FF632A"/>
</svg>
